{
	"asset":{
		"generator":"Khronos glTF Blender I/O v4.0.44",
		"version":"2.0"
	},
	"scene":0,
	"scenes":[
		{
			"name":"Scene",
			"nodes":[
				0,
				1,
				2,
				3,
				4
			]
		}
	],
	"nodes":[
		{
			"mesh":0,
			"name":"\u0426\u0438\u043b\u0438\u043d\u0434\u0440.001",
			"rotation":[
				0.7071068286895752,
				0,
				0,
				0.7071068286895752
			],
			"scale":[
				0.5168691277503967,
				0.17988908290863037,
				0.5168691277503967
			],
			"translation":[
				2.274129867553711,
				0.2769862413406372,
				-1.175821304321289
			]
		},
		{
			"mesh":1,
			"name":"\u041a\u0443\u0431.001",
			"rotation":[
				0,
				-0.7071068286895752,
				-0.7071068286895752,
				0
			],
			"scale":[
				-0.1457056999206543,
				-0.12156304717063904,
				-0.36347535252571106
			],
			"translation":[
				-3.6315500736236572,
				0.18323028087615967,
				0.6617538928985596
			]
		},
		{
			"mesh":2,
			"name":"\u041a\u0443\u0431.002",
			"scale":[
				1.1759567260742188,
				0.4561825394630432,
				0.12197963148355484
			],
			"translation":[
				2.852940559387207,
				0.78798907995224,
				-0.9717220067977905
			]
		},
		{
			"mesh":3,
			"name":"\u041a\u0443\u0431.004",
			"scale":[
				0.06728760898113251,
				1.2838282585144043,
				1.0566166639328003
			],
			"translation":[
				4.6804609298706055,
				1.681007981300354,
				0
			]
		},
		{
			"mesh":4,
			"name":"\u0426\u0438\u043b\u0438\u043d\u0434\u0440.002",
			"rotation":[
				0.7071068286895752,
				0,
				0,
				0.7071068286895752
			],
			"scale":[
				0.5168691277503967,
				0.17988908290863037,
				0.5168691277503967
			],
			"translation":[
				2.274129867553711,
				0.2769862413406372,
				-1.175821304321289
			]
		}
	],
	"materials":[
		{
			"doubleSided":true,
			"name":"\u041c\u0430\u0442\u0435\u0440\u0438\u0430\u043b.001",
			"pbrMetallicRoughness":{
				"baseColorFactor":[
					0,
					0,
					0,
					1
				],
				"metallicFactor":0
			}
		},
		{
			"doubleSided":true,
			"name":"\u041c\u0430\u0442\u0435\u0440\u0438\u0430\u043b",
			"pbrMetallicRoughness":{
				"baseColorFactor":[
					0.007135673426091671,
					0.007135673426091671,
					0.007135673426091671,
					1
				],
				"metallicFactor":0,
				"roughnessFactor":0.5
			}
		},
		{
			"doubleSided":true,
			"name":"Material",
			"pbrMetallicRoughness":{
				"baseColorFactor":[
					0.3485085070133209,
					0.004571245983242989,
					0.005266566760838032,
					1
				],
				"metallicFactor":0.37254902720451355,
				"roughnessFactor":0.2647058963775635
			}
		},
		{
			"doubleSided":true,
			"name":"\u041c\u0430\u0442\u0435\u0440\u0438\u0430\u043b.003",
			"pbrMetallicRoughness":{
				"baseColorFactor":[
					0.13128553330898285,
					0.012629332020878792,
					0.009127181023359299,
					1
				],
				"metallicFactor":0,
				"roughnessFactor":0.7450980544090271
			}
		},
		{
			"doubleSided":true,
			"name":"\u041c\u0430\u0442\u0435\u0440\u0438\u0430\u043b.002",
			"pbrMetallicRoughness":{
				"baseColorFactor":[
					0.1838267296552658,
					0.1838267296552658,
					0.1838267296552658,
					1
				],
				"roughnessFactor":0.29411762952804565
			}
		}
	],
	"meshes":[
		{
			"name":"\u0426\u0438\u043b\u0438\u043d\u0434\u0440.003",
			"primitives":[
				{
					"attributes":{
						"POSITION":0,
						"NORMAL":1,
						"TEXCOORD_0":2
					},
					"indices":3,
					"material":0
				}
			]
		},
		{
			"name":"\u041a\u0443\u0431.007",
			"primitives":[
				{
					"attributes":{
						"POSITION":4,
						"NORMAL":5,
						"TEXCOORD_0":6
					},
					"indices":7,
					"material":1
				}
			]
		},
		{
			"name":"\u041a\u0443\u0431.012",
			"primitives":[
				{
					"attributes":{
						"POSITION":8,
						"NORMAL":9,
						"TEXCOORD_0":10,
						"TEXCOORD_1":11
					},
					"indices":12,
					"material":2
				}
			]
		},
		{
			"name":"\u041a\u0443\u0431.014",
			"primitives":[
				{
					"attributes":{
						"POSITION":13,
						"NORMAL":14,
						"TEXCOORD_0":15
					},
					"indices":16,
					"material":3
				}
			]
		},
		{
			"name":"\u0426\u0438\u043b\u0438\u043d\u0434\u0440.006",
			"primitives":[
				{
					"attributes":{
						"POSITION":17,
						"NORMAL":18,
						"TEXCOORD_0":19
					},
					"indices":20,
					"material":4
				}
			]
		}
	],
	"accessors":[
		{
			"bufferView":0,
			"componentType":5126,
			"count":904,
			"max":[
				3.100524663925171,
				14.050117492675781,
				1.000000238418579
			],
			"min":[
				-1,
				-1.0000001192092896,
				-1.000000238418579
			],
			"type":"VEC3"
		},
		{
			"bufferView":1,
			"componentType":5126,
			"count":904,
			"type":"VEC3"
		},
		{
			"bufferView":2,
			"componentType":5126,
			"count":904,
			"type":"VEC2"
		},
		{
			"bufferView":3,
			"componentType":5123,
			"count":2664,
			"type":"SCALAR"
		},
		{
			"bufferView":4,
			"componentType":5126,
			"count":178,
			"max":[
				1.8091169595718384,
				13.669893264770508,
				1.0000001192092896
			],
			"min":[
				-1.8091322183609009,
				-2.7824745178222656,
				-1.313881754875183
			],
			"type":"VEC3"
		},
		{
			"bufferView":5,
			"componentType":5126,
			"count":178,
			"type":"VEC3"
		},
		{
			"bufferView":6,
			"componentType":5126,
			"count":178,
			"type":"VEC2"
		},
		{
			"bufferView":7,
			"componentType":5123,
			"count":336,
			"type":"SCALAR"
		},
		{
			"bufferView":8,
			"componentType":5126,
			"count":420,
			"max":[
				1.541930913925171,
				4.965110778808594,
				19.540912628173828
			],
			"min":[
				-6.394048690795898,
				-1.1773626804351807,
				-3.6083831787109375
			],
			"type":"VEC3"
		},
		{
			"bufferView":9,
			"componentType":5126,
			"count":420,
			"type":"VEC3"
		},
		{
			"bufferView":10,
			"componentType":5126,
			"count":420,
			"type":"VEC2"
		},
		{
			"bufferView":11,
			"componentType":5126,
			"count":420,
			"type":"VEC2"
		},
		{
			"bufferView":12,
			"componentType":5123,
			"count":876,
			"type":"SCALAR"
		},
		{
			"bufferView":13,
			"componentType":5126,
			"count":24,
			"max":[
				1,
				1,
				1
			],
			"min":[
				-1,
				-1,
				-1
			],
			"type":"VEC3"
		},
		{
			"bufferView":14,
			"componentType":5126,
			"count":24,
			"type":"VEC3"
		},
		{
			"bufferView":15,
			"componentType":5126,
			"count":24,
			"type":"VEC2"
		},
		{
			"bufferView":16,
			"componentType":5123,
			"count":36,
			"type":"SCALAR"
		},
		{
			"bufferView":17,
			"componentType":5126,
			"count":640,
			"max":[
				2.9217991828918457,
				14.052757263183594,
				0.8212747573852539
			],
			"min":[
				-0.8212745189666748,
				-1.0026402473449707,
				-0.8212747573852539
			],
			"type":"VEC3"
		},
		{
			"bufferView":18,
			"componentType":5126,
			"count":640,
			"type":"VEC3"
		},
		{
			"bufferView":19,
			"componentType":5126,
			"count":640,
			"type":"VEC2"
		},
		{
			"bufferView":20,
			"componentType":5123,
			"count":1896,
			"type":"SCALAR"
		}
	],
	"bufferViews":[
		{
			"buffer":0,
			"byteLength":10848,
			"byteOffset":0,
			"target":34962
		},
		{
			"buffer":0,
			"byteLength":10848,
			"byteOffset":10848,
			"target":34962
		},
		{
			"buffer":0,
			"byteLength":7232,
			"byteOffset":21696,
			"target":34962
		},
		{
			"buffer":0,
			"byteLength":5328,
			"byteOffset":28928,
			"target":34963
		},
		{
			"buffer":0,
			"byteLength":2136,
			"byteOffset":34256,
			"target":34962
		},
		{
			"buffer":0,
			"byteLength":2136,
			"byteOffset":36392,
			"target":34962
		},
		{
			"buffer":0,
			"byteLength":1424,
			"byteOffset":38528,
			"target":34962
		},
		{
			"buffer":0,
			"byteLength":672,
			"byteOffset":39952,
			"target":34963
		},
		{
			"buffer":0,
			"byteLength":5040,
			"byteOffset":40624,
			"target":34962
		},
		{
			"buffer":0,
			"byteLength":5040,
			"byteOffset":45664,
			"target":34962
		},
		{
			"buffer":0,
			"byteLength":3360,
			"byteOffset":50704,
			"target":34962
		},
		{
			"buffer":0,
			"byteLength":3360,
			"byteOffset":54064,
			"target":34962
		},
		{
			"buffer":0,
			"byteLength":1752,
			"byteOffset":57424,
			"target":34963
		},
		{
			"buffer":0,
			"byteLength":288,
			"byteOffset":59176,
			"target":34962
		},
		{
			"buffer":0,
			"byteLength":288,
			"byteOffset":59464,
			"target":34962
		},
		{
			"buffer":0,
			"byteLength":192,
			"byteOffset":59752,
			"target":34962
		},
		{
			"buffer":0,
			"byteLength":72,
			"byteOffset":59944,
			"target":34963
		},
		{
			"buffer":0,
			"byteLength":7680,
			"byteOffset":60016,
			"target":34962
		},
		{
			"buffer":0,
			"byteLength":7680,
			"byteOffset":67696,
			"target":34962
		},
		{
			"buffer":0,
			"byteLength":5120,
			"byteOffset":75376,
			"target":34962
		},
		{
			"buffer":0,
			"byteLength":3792,
			"byteOffset":80496,
			"target":34963
		}
	],
	"buffers":[
		{
			"byteLength":84288,
			"uri":"pricep.bin"
		}
	]
}
